<?xml version="1.0" encoding="UTF-8" standalone="no"?>
<!-- Created with Inkscape (http://www.inkscape.org/) -->

<svg
   xmlns:dc="http://purl.org/dc/elements/1.1/"
   xmlns:cc="http://creativecommons.org/ns#"
   xmlns:rdf="http://www.w3.org/1999/02/22-rdf-syntax-ns#"
   xmlns:svg="http://www.w3.org/2000/svg"
   xmlns="http://www.w3.org/2000/svg"
   xmlns:sodipodi="http://sodipodi.sourceforge.net/DTD/sodipodi-0.dtd"
   xmlns:inkscape="http://www.inkscape.org/namespaces/inkscape"
   width="210mm"
   height="297mm"
   viewBox="0 0 210 297"
   version="1.1"
   id="svg8"
   inkscape:version="0.92.3 (2405546, 2018-03-11)"
   sodipodi:docname="dibujo.svg">
  <defs
     id="defs2" />
  <sodipodi:namedview
     id="base"
     pagecolor="#ffffff"
     bordercolor="#666666"
     borderopacity="1.0"
     inkscape:pageopacity="0.0"
     inkscape:pageshadow="2"
     inkscape:zoom="0.7"
     inkscape:cx="549.50648"
     inkscape:cy="247.98567"
     inkscape:document-units="mm"
     inkscape:current-layer="layer1"
     showgrid="false"
     showguides="true"
     inkscape:guide-bbox="true"
     inkscape:measure-start="394.286,-8.57143"
     inkscape:measure-end="-11.4286,65.7143"
     inkscape:window-width="1366"
     inkscape:window-height="745"
     inkscape:window-x="-8"
     inkscape:window-y="-8"
     inkscape:window-maximized="1">
    <sodipodi:guide
       position="102.05357,17.386905"
       orientation="0,1"
       id="guide3821"
       inkscape:locked="false" />
  </sodipodi:namedview>
  <metadata
     id="metadata5">
    <rdf:RDF>
      <cc:Work
         rdf:about="">
        <dc:format>image/svg+xml</dc:format>
        <dc:type
           rdf:resource="http://purl.org/dc/dcmitype/StillImage" />
        <dc:title></dc:title>
      </cc:Work>
    </rdf:RDF>
  </metadata>
  <g
     inkscape:label="Capa 1"
     inkscape:groupmode="layer"
     id="layer1">
    <path
       id="rect3817"
       transform="scale(0.26458333)"
       style="fill:#ffffff;stroke-width:0.99999994;opacity:0.919;fill-opacity:0.99497485"
       d="M -5.7148438,2.5195312 V 1064.1406 c 6.26427689,2.2056 12.5622163,4.3153 18.8320318,6.5039 0.32355,0.1087 0.647147,0.2175 0.970703,0.3262 0.03057,0.01 0.06122,0.013 0.0918,0.019 v 0 c 0.0033,0 0.05494,0.015 0.0625,0.018 -0.01951,-0.01 -0.0391,-0.013 -0.05859,-0.02 1.235615,0.2658 2.472445,0.5297 3.691406,0.8633 1.677087,0.4588 3.798269,1.3348 2.46875,0.791 9.422364,3.8591 1.628578,0.5187 6.150391,2.748 -0.07156,-0.058 -0.09802,-0.1044 -0.02344,-0.123 0.451817,-0.113 0.878138,0.3119 1.332031,0.416 1.447843,0.3322 2.927479,0.5128 4.382813,0.8105 1.117566,0.1837 2.230809,0.4036 3.353515,0.5528 7.884343,1.0475 -2.450715,-0.6788 8.203126,0.9785 4.137387,0.6437 8.226797,1.5435 12.351562,2.2559 1.773328,0.4154 3.533011,0.294 5.322266,0.2226 7.519003,0.6807 4.83249,0.068 10.746093,1.6758 1.179976,0.3205 3.137699,1.11 3.947266,1.4004 0.18788,0.067 0.750992,0.2646 0.572266,0.1758 -0.372926,-0.1856 -0.772001,-0.3128 -1.158203,-0.4688 7.339459,-0.077 14.678179,0.6176 22.005859,1.041 5.666563,0.3394 11.340513,0.4497 17.015623,0.3965 5.36417,-0.2487 10.67786,0.062 15.98438,0.8867 3.76856,0.6025 7.52108,0.8024 11.31836,1.2832 1.39203,0.096 2.66134,0.7207 4.01172,0.9961 0.29985,0.061 -1.18021,-0.313 -0.87696,-0.2715 1.56494,0.2151 3.12799,0.4519 4.69141,0.6778 5.00487,1.2387 9.97737,2.7528 15.05664,3.6719 1.79,-0.054 3.56524,0.017 5.3418,0.1328 13.09938,-0.6755 22.92584,2.5215 29.25781,7.582 0.26615,-0.1308 0.5856,-0.2335 0.9707,-0.2871 3.81158,-0.531 7.55442,-0.9422 11.32031,-0.9844 2.25954,-0.025 4.52689,0.082 6.82227,0.377 4.24979,0.07 7.89506,2.3737 11.88867,3.3632 3.90089,0.056 7.21798,2.162 10.88086,3.127 3.61993,0.6307 7.21548,1.3562 10.69727,2.541 3.90537,1.3939 7.71303,2.9783 11.86132,3.4356 0.37425,0.019 0.74882,0.033 1.12305,0.053 1.72396,0.082 2.33546,1.1792 1.91406,1.9902 0.32109,7e-4 0.64144,0.01 0.96289,0 4.71778,-0.2582 9.39696,0.1326 14.05079,0.9375 0.57792,0.093 1.16066,0.1538 1.73242,0.2793 4.30475,0.9442 8.57426,2.5738 7.28515,1.7285 3.34785,-0.064 6.6964,-0.1009 10.04493,-0.1308 7.94747,-0.5514 15.61855,1.5663 23.32812,3.0644 0.18047,0.015 0.3625,0.034 0.54297,0.051 0.0465,0 0.0922,-0.01 0.13867,-0.01 13.78205,-0.901 23.29225,3.0151 28.7793,9.0039 h 52.5625 c 1.27455,-1.0592 2.8791,-2.0212 4.83008,-2.8243 1.94896,-2.1308 1.33137,-1.8793 3.98047,-1.8828 0.69884,5e-4 1.39831,2e-4 2.09765,0 2.85703,-0.6784 5.76908,-1.1335 8.68945,-1.5136 0.59843,-0.8418 2.07649,-1.0948 4.75977,-1.5723 4.31868,-0.8113 8.64956,-1.4896 13.00781,-2.0469 1.08492,-0.1387 2.11077,-0.2008 3.07617,-0.1933 2.67944,0.021 4.87876,0.5825 6.60352,1.4804 h 0.22852 c 2.02417,-2.7894 6.24105,-4.7866 12.52734,-4.3496 4.04949,0.2815 8.10875,0.3413 12.16797,0.3692 0.51704,-0.1074 1.04783,-0.1959 1.78125,-0.2598 0.49432,-0.043 0.9921,-0.01 1.48828,0 2.08687,0.01 4.17343,0.061 6.25977,0.1035 1.56209,0.011 2.41849,0.047 3.93945,-0.039 0.5901,-0.034 1.17687,-0.1233 1.76758,-0.1445 0.67253,-0.023 0.62882,0.2425 1.26171,-0.1797 0.38707,-0.2581 0.71364,-0.596 1.07032,-0.8945 0.77869,-0.5247 0.42052,-0.3818 -0.21289,1.1387 1.03816,-0.5798 1.63713,-1.732 2.55468,-2.4883 0.11906,-0.098 0.30894,0 0.46289,0 1.55885,0.01 2.11184,0.013 3.54493,0.016 1.20486,-0.463 2.42929,-0.8731 3.67968,-1.2265 3.0056,-0.903 6.13688,-1.1148 9.25586,-1.1524 1.77789,0.011 3.55614,0.065 5.33399,0.078 0.0157,0 0.43855,6e-4 0.85742,0 0.10455,-0.041 0.32919,-0.089 0.49414,-0.1328 0.0114,0 0.0245,8e-4 0.0371,-0.01 0.0191,-0.01 0.0533,-0.013 0.0684,-0.018 0.83552,-0.1686 1.34254,-0.4996 2.12305,-0.7422 0.0141,-0.01 0.0208,-0.014 0.0312,-0.019 1.25302,-0.4596 1.93336,-0.923 3.76367,-1.2754 1.35201,-0.2604 1.8203,-0.2604 3.10156,-0.3477 1.30004,-0.4409 2.7092,-0.7137 4.08789,-0.9277 0.37039,-0.034 0.7401,-0.078 1.11133,-0.1016 0.78531,-0.05 1.57185,-0.031 2.35742,-0.01 -0.0638,0 -0.12769,3e-4 -0.1914,-0.01 1.25883,-0.2378 2.53179,-0.3568 3.80859,-0.4278 -0.0227,8e-4 0.0378,-0.024 0.0586,-0.027 0.22186,-0.054 0.44595,-0.107 0.66992,-0.1523 0.27838,-0.056 0.25721,-0.046 0.42774,-0.078 0.065,-0.027 0.16479,-0.063 0.35547,-0.123 2.0104,-0.6346 4.12166,-0.5937 6.18554,-0.8555 1.53139,-0.419 3.14406,-0.6144 4.63282,-1.1816 1.83636,-0.4475 3.42932,-1.0795 5.18945,-1.6641 2.55957,-0.8257 5.22021,-1.0873 7.89453,-1.0742 h -0.68945 c -0.004,0 -0.0212,-0.016 -0.0137,-0.016 1.10959,-0.2634 2.24256,-0.3531 3.37695,-0.4239 -0.0612,-0.01 -0.24256,-5e-4 -0.18359,-0.019 0.34959,-0.1084 0.7182,-0.1383 1.08203,-0.1875 -0.005,0 -0.0236,6e-4 -0.0156,-0.014 0.0934,-0.105 0.26723,-0.087 0.40235,-0.125 0.28459,-0.081 0.5718,-0.1549 0.85742,-0.2324 1.45727,-0.5571 3.19264,-1.024 5.07617,-1.3262 1.0617,-0.088 2.10618,-0.2785 3.16016,-0.4414 0.0228,-0.01 0.0414,-0.015 0.0644,-0.023 -0.0975,0.013 -0.11721,0.015 -0.17578,0.023 0.30763,-0.058 0.78757,-0.2048 1.00586,-0.2793 0.21828,-0.075 0.17492,-0.076 -0.5625,0.1622 -0.0996,0.032 -0.17203,0.064 -0.26758,0.096 0.21026,-0.027 0.5049,-0.065 0.3789,-0.047 -0.14856,0.021 -0.29518,0.047 -0.44335,0.07 -4.21936,1.4278 -4.44658,2.7439 -2.85938,4.0391 2.00268,-0.1082 4.00745,-0.1764 6.01367,-0.2149 0.36846,-0.01 0.73696,2e-4 1.10547,0 0.99855,-1.8326 2.83881,-3.4461 5.56445,-4.4433 1.19302,-3.6642 5.42823,-7.0563 12.72657,-7.6348 h 0.002 c 0.96794,-0.077 1.93806,-0.1354 2.9043,-0.2305 4.28405,-0.4242 4.50815,-0.6156 8.98632,-0.875 4.42731,-0.2574 8.84081,-0.1025 13.26758,0.037 2.43461,0.1228 4.87092,0.1286 7.30664,0.082 0.98516,-0.339 2.17886,-0.6994 3.65235,-1.0352 1.25325,-0.2858 2.69567,-0.1072 4.01367,0.039 0.64762,0.01 1.29517,4e-4 1.94336,-0.02 1.39975,-3.0575 5.11546,-5.688 11.37695,-6.2675 3.71906,-0.3443 2.0471,-0.2094 5.01172,-0.4239 0.54545,-0.039 1.07414,-0.062 1.58789,-0.062 0.96488,-0.01 1.86947,0.052 2.7207,0.1621 2.13112,-1.2304 5.02269,-2.0156 8.69532,-2.0156 h 1.76758 c 4.46858,0 7.79446,1.1509 9.97851,2.8672 2.18556,-1.7144 5.50354,-2.8681 9.9668,-2.8691 0.39015,-0.2217 0.82371,-0.4318 1.36523,-0.6368 0.69098,-0.2616 1.41934,-0.4112 2.12891,-0.6171 2.07432,-0.4614 4.19253,-0.2763 6.29297,-0.3243 0.80568,-0.019 1.60824,-0.1112 2.41211,-0.1679 1.68702,-0.3282 3.38556,-0.5806 5.0957,-0.7305 0.0265,-0.01 0.008,-0.016 0.041,-0.023 0.46179,-0.1584 0.93035,-0.2978 1.39258,-0.4551 0.0696,-0.023 0.27252,-0.067 0.20118,-0.086 -0.0442,-0.011 -0.0867,-5e-4 -0.13086,0.022 2.23417,-0.9558 4.55375,-1.705 6.84765,-2.5078 1.7226,-0.4667 3.40439,-1.0192 5.10938,-1.5351 2.11544,-0.5 0.31373,-0.1054 2.49414,-0.4825 0.0673,-0.011 -0.26625,0.013 -0.20313,-0.017 0.47244,-0.1923 1.81792,-0.5119 2.10547,-0.586 1.7596,-0.6418 3.612,-0.9042 5.47266,-1 0.52612,0 1.0521,0.013 1.57812,0.024 2.17992,-1.7849 5.54338,-3.0001 10.11914,-3 h 0.33789 c 1.55652,0 2.96842,0.1456 4.24805,0.4004 -0.0523,-1.4191 0.065,-1.5606 0.41406,0.057 0.0619,-0.025 0.12604,-0.04 0.1875,-0.066 2.23442,-0.7277 4.50501,-1.3816 6.7793,-1.9824 1.32019,-0.3944 2.66447,-0.7079 3.97461,-1.1387 1.0848,-0.2967 2.25965,-0.8637 3.67187,-1.3945 2.28843,-0.5974 4.59192,-1.0938 6.88477,-1.6836 2.52597,-0.6648 5.14105,-0.676 7.7168,-0.9805 1.23991,-0.1875 2.49395,-0.2023 3.74218,-0.2793 -0.0417,0 -0.0589,-0.01 -0.0293,-0.023 0.18973,-0.091 0.41543,-0.07 0.62304,-0.1055 -0.11566,0.014 0.75934,-0.1203 1.29102,-0.2031 -0.0645,-0.1053 0.29008,-0.1107 0.42969,-0.1621 0.3103,-0.1141 0.62201,-0.2198 0.93359,-0.3301 1.85311,-0.4979 1.58522,-0.5691 3.64453,-1.2012 0.0391,-0.2174 0.0672,-0.4264 0.11328,-0.6484 0.0189,-0.096 0.0403,-0.1966 0.0606,-0.293 0.0265,-0.1365 0.25099,-1.5393 0.14063,-0.5547 -0.0592,0.5272 -0.0923,0.998 -0.11133,1.4336 0.0861,-0.026 0.115,-0.038 0.20898,-0.064 2.13343,-0.7551 4.36634,-1.1494 6.54297,-1.7344 0.81569,-0.2826 1.64976,-0.4971 2.48828,-0.6953 V 2.5195312 Z M 14.242188,1071.0234 c 0.253141,0.085 0.506659,0.169 0.759765,0.2539 0.05755,0 0.226603,0.011 0.171875,0 -0.30591,-0.1 -0.819166,-0.2219 -0.93164,-0.2539 z m 788.615232,3.3164 c -1.31779,0.3159 -2.63075,0.6497 -3.92187,1.0704 1.14686,0.019 2.44452,0.1237 3.92187,0.332 z m -88.63476,2.9375 c -10e-4,10e-5 -0.13162,0.028 -0.17969,0.039 0.16233,-0.012 0.32394,-0.028 0.48633,-0.039 -0.10247,0 -0.20525,-0.012 -0.30664,0 z m -77.04493,12.0821 c -0.10447,0.042 -0.18098,0.069 -0.28125,0.1094 0.25003,0.016 0.38862,0.03 0.43555,0.021 0.003,-7e-4 0.005,0 0.008,0 0.0381,-0.011 -0.0158,-0.045 -0.16211,-0.1289 z m 103.84766,3.0761 c -0.0347,0.024 -0.0742,0.046 -0.10937,0.07 0.0845,-0.012 0.16936,-0.023 0.2539,-0.035 -0.0468,-0.013 -0.0982,-0.021 -0.14453,-0.035 z m -23.625,2.1758 c -0.59814,0.1312 -1.22049,0.2388 -1.88281,0.3184 -1.97099,0.047 -3.88369,0.6846 -5.84961,0.7969 h -0.002 c -1.20612,0.6328 -2.62771,1.1342 -4.28711,1.4375 3.35236,-0.3575 6.70326,-0.7411 10.05468,-1.1133 2.584,-0.3528 5.16783,-0.7111 7.75196,-1.0625 h -1.6836 c -1.50015,0 -2.86118,-0.1378 -4.10156,-0.377 z m -15.10351,2.875 c -0.29,0.01 -0.57275,0.027 -0.87305,0.027 h -1.30078 c -0.23046,0.087 -0.45551,0.1713 -0.71289,0.2675 0.96204,-0.1 1.92477,-0.1939 2.88672,-0.2949 z m -490.75977,3.7813 c -3.1892,0.045 -6.36157,0.3874 -9.60156,0.8086 0.11282,0.1192 0.22135,0.2401 0.33398,0.3593 0.24088,0.1139 0.47805,0.2352 0.71485,0.3575 0.17876,-0.035 0.37004,-0.057 0.59179,-0.047 0.15443,0.01 0.31834,0.027 0.49219,0.059 7.6924,1.417 15.44808,2.3766 23.26172,2.7148 3.40349,-0.4198 6.17516,1.2923 9.25586,2.3067 2.37471,1.1676 4.9332,1.6899 7.50781,2.1582 2.23387,0.1656 4.46719,0.3325 6.70117,0.4961 0.014,0 0.0309,9e-4 0.0449,0 -3.37203,-1.1478 -6.86617,-1.8019 -10.36718,-2.4394 -3.65384,-0.9967 -6.96584,-3.0264 -10.85547,-3.1211 -3.87217,-1.0332 -7.43081,-3.1373 -11.54102,-3.2949 -2.21328,-0.2896 -4.38193,-0.3898 -6.53906,-0.3594 z m -3.23438,5.1269 c 0.40818,0.3424 0.81266,0.69 1.21094,1.0508 0.17594,0.1594 0.31795,0.3195 0.44141,0.4805 0.40595,0.055 0.81078,0.1204 1.2168,0.1738 0.94436,-0.3989 2.44999,-0.6311 3.79882,-0.7754 -2.22698,-0.2739 -4.45064,-0.5745 -6.66797,-0.9297 z m 11.72657,1.4727 c 0.0928,0.1654 0.14497,0.3431 0.14843,0.5254 1.5965,0.069 3.19257,0.1383 4.78907,0.207 2.32125,0.16 4.64214,0.3326 6.96289,0.5 -1.48946,-0.5409 -3.00811,-0.93 -4.72461,-0.7246 -2.39822,-0.1047 -4.78895,-0.2884 -7.17578,-0.5078 z m -12.58203,2.5957 c 0.16754,0.099 0.32323,0.1731 0.44531,0.1914 h 0.0566 c -0.075,-0.063 -0.10545,-0.086 -0.17578,-0.1445 -0.10879,-0.015 -0.21741,-0.032 -0.32617,-0.047 z" />
    <path
       id="path3823"
       transform="scale(0.26458333)"
       style="fill:none;stroke:#000000;stroke-width:0.99999994px;stroke-linecap:butt;stroke-linejoin:miter;stroke-opacity:1"
       d="m -8.5722656,1056.8047 343.3691456,62.6601 c 1.70225,0.2093 3.31481,0.5029 4.83593,0.8809 l 43.22461,7.8887 410.86914,-71.3321 c 0.009,-0.041 0.0191,-0.089 0.0234,-0.098 z m 802.3261756,0 c 10e-4,0.01 -0.007,0.073 -0.008,0.094 l 0.53907,-0.094 z" />
  </g>
</svg>
