<?xml version="1.0" encoding="iso-8859-1"?>
<!-- Generator: Adobe Illustrator 19.0.0, SVG Export Plug-In . SVG Version: 6.00 Build 0)  -->
<svg xmlns="http://www.w3.org/2000/svg" xmlns:xlink="http://www.w3.org/1999/xlink" version="1.1" id="Capa_1" x="0px" y="0px" viewBox="0 0 512 512" style="enable-background:new 0 0 512 512;" xml:space="preserve" width="512px" height="512px">
<g>
	<g>
		<path d="M469.948,76.719c-17.648,0-68.115,0-85.326,0c-21.052,0-38.265,16.862-38.368,37.67v117.284    c0,8.817,7.147,15.964,15.964,15.964s15.964-7.147,15.964-15.964V114.469c0-0.001,0-0.003,0-0.004    c0.011-1.909,1.566-3.451,3.477-3.445c1.91,0.006,3.455,1.556,3.455,3.467v268.349c0,10.581,8.576,19.157,19.157,19.157    s19.157-8.577,19.157-19.157V229.71h8.271v153.125c0,10.581,8.576,19.157,19.157,19.157s19.157-8.577,19.157-19.157    c0-253.386,0-108.244,0-268.43c0-1.756,1.422-3.182,3.178-3.187c1.756-0.005,3.187,1.412,3.197,3.168c0,0.001,0,0.001,0,0.001    v117.285c0,8.817,7.147,15.964,15.964,15.964s15.964-7.147,15.964-15.964V114.309C508.212,93.582,491,76.719,469.948,76.719z" fill="#FFFFFF"/>
	</g>
</g>
<g>
	<g>
		<circle cx="427.555" cy="33.084" r="33.084" fill="#FFFFFF"/>
	</g>
</g>
<g>
	<g>
		<path d="M208.01,182.997l-29.92,29.874v18.802c0,8.817,7.147,15.964,15.964,15.964s15.964-7.147,15.964-15.964v-50.915    C209.383,181.531,208.722,182.286,208.01,182.997z" fill="#FFFFFF"/>
	</g>
</g>
<g>
	<g>
		<path d="M301.784,76.719c-13.785,0-47.595,0-69.938,0c2.598,5.937,3.355,12.737,1.72,19.523l-16.618,69.002v217.591    c0,10.581,8.576,19.157,19.157,19.157s19.157-8.577,19.157-19.157V229.71h8.271v153.125c0,10.581,8.576,19.157,19.157,19.157    c10.58,0,19.157-8.577,19.157-19.157c0-253.386,0-108.244,0-268.43c0-1.756,1.421-3.182,3.178-3.187    c1.756-0.005,3.187,1.412,3.197,3.168c0,0.001,0,0.001,0,0.001v117.285c0,8.817,7.147,15.964,15.964,15.964    s15.964-7.147,15.964-15.964V114.309C340.049,93.582,322.837,76.719,301.784,76.719z" fill="#FFFFFF"/>
	</g>
</g>
<g>
	<g>
		<circle cx="259.392" cy="33.084" r="33.084" fill="#FFFFFF"/>
	</g>
</g>
<g>
	<g>
		<path d="M207.415,73.409c-8.632-2.076-17.316,3.234-19.395,11.866l-16.322,67.775l-31.845,31.797    c-23.296-0.445-32.616-0.453-56.293,0l-31.845-31.797L35.394,85.275c-2.079-8.631-10.762-13.945-19.395-11.866    C7.367,75.487,2.054,84.169,4.134,92.802l17.384,72.183c0.694,2.883,2.172,5.517,4.271,7.612    c42.793,42.73,43.215,42.379,43.218,42.358v277.753c0,10.655,8.637,19.293,19.292,19.293s19.293-8.637,19.293-19.293V338.502h8.33    v154.206c0,10.655,8.637,19.293,19.292,19.293s19.293-8.637,19.293-19.293c0-252.815,0-113.014,0-277.599    c0.003,0.013,0.443,0.102,43.12-42.511c2.098-2.096,3.576-4.73,4.271-7.612l17.384-72.183    C221.36,84.17,216.048,75.488,207.415,73.409z" fill="#FFFFFF"/>
	</g>
</g>
<g>
	<g>
		<path d="M111.753,107.17c-18.402,0-33.32,14.918-33.32,33.32c0,18.569,15.11,33.32,33.32,33.32c18.348,0,33.32-14.882,33.32-33.32    C145.073,122.087,130.155,107.17,111.753,107.17z" fill="#FFFFFF"/>
	</g>
</g>
<g>
</g>
<g>
</g>
<g>
</g>
<g>
</g>
<g>
</g>
<g>
</g>
<g>
</g>
<g>
</g>
<g>
</g>
<g>
</g>
<g>
</g>
<g>
</g>
<g>
</g>
<g>
</g>
<g>
</g>
</svg>
