<?xml version="1.0" encoding="iso-8859-1"?>
<!-- Generator: Adobe Illustrator 18.1.1, SVG Export Plug-In . SVG Version: 6.00 Build 0)  -->
<svg xmlns="http://www.w3.org/2000/svg" xmlns:xlink="http://www.w3.org/1999/xlink" version="1.1" id="Capa_1" x="0px" y="0px" viewBox="0 0 27.785 27.785" style="enable-background:new 0 0 27.785 27.785;" xml:space="preserve" width="512px" height="512px">
<g>
	<g id="c18_bow">
		<path d="M20.08,6.315c-0.676-2.293-1.451-4.394-1.451-4.394s0.254,1.002-1.133,3.295    c-1.93,3.185-1.813,2.894-12.715,18.346l2.807,3.904L19.66,9.576C19.66,9.576,20.761,8.606,20.08,6.315z" fill="#FFFFFF"/>
		<polygon points="18.058,14.283 15.363,18.238 20.258,27.785 23.004,23.751   " fill="#FFFFFF"/>
		<path d="M11.025,2.026l0.117-0.363C11.08,1.769,11.041,1.893,11.025,2.026z" fill="#FFFFFF"/>
		<path d="M11.308,12.753l2.393-4.069l-1.977-4.405c0,0-0.805-1.365-0.699-2.253L9.558,6.62    c0,0-0.482,1.211,0.229,2.536C10.494,10.481,11.308,12.753,11.308,12.753z" fill="#FFFFFF"/>
		<path d="M17.627,4.054c0,0,1.244-1.76,0.629-2.987c0,0-2.738-2.18-6.498-0.307c0,0-1.195,0.708,0.322,3.294    C12.08,4.054,15.752,3.084,17.627,4.054z" fill="#FFFFFF"/>
	</g>
</g>
<g>
</g>
<g>
</g>
<g>
</g>
<g>
</g>
<g>
</g>
<g>
</g>
<g>
</g>
<g>
</g>
<g>
</g>
<g>
</g>
<g>
</g>
<g>
</g>
<g>
</g>
<g>
</g>
<g>
</g>
</svg>
