<?xml version="1.0"?>
<svg xmlns="http://www.w3.org/2000/svg" height="512px" viewBox="0 0 480 480" width="512px"><path d="m472 0h-464c-4.417969 0-8 3.582031-8 8v464c0 4.417969 3.582031 8 8 8h464c4.417969 0 8-3.582031 8-8v-464c0-4.417969-3.582031-8-8-8zm-8 16v80h-448v-80zm-448 448v-352h448v352zm0 0" fill="#26bfa2"/><path d="m56 48h16v16h-16zm0 0" fill="#26bfa2"/><path d="m88 48h16v16h-16zm0 0" fill="#26bfa2"/><path d="m120 48h16v16h-16zm0 0" fill="#26bfa2"/><path d="m416 48h16v16h-16zm0 0" fill="#26bfa2"/><path d="m32 88h416c4.417969 0 8-3.582031 8-8v-48c0-4.417969-3.582031-8-8-8h-416c-4.417969 0-8 3.582031-8 8v48c0 4.417969 3.582031 8 8 8zm408-16h-272v-32h272zm-400-32h112v32h-112zm0 0" fill="#26bfa2"/><path d="m216 128h-96c-4.417969 0-8 3.582031-8 8v96c0 4.417969 3.582031 8 8 8h96c4.417969 0 8-3.582031 8-8v-96c0-4.417969-3.582031-8-8-8zm-8 96h-80v-80h80zm0 0" fill="#26bfa2"/><path d="m216 288h-96c-4.417969 0-8 3.582031-8 8v96c0 4.417969 3.582031 8 8 8h96c4.417969 0 8-3.582031 8-8v-96c0-4.417969-3.582031-8-8-8zm-8 96h-80v-80h80zm0 0" fill="#26bfa2"/><path d="m32 160h16v16h-16zm0 0" fill="#26bfa2"/><path d="m64 160h32v16h-32zm0 0" fill="#26bfa2"/><path d="m32 192h64v16h-64zm0 0" fill="#26bfa2"/><path d="m360 128h-96c-4.417969 0-8 3.582031-8 8v96c0 4.417969 3.582031 8 8 8h96c4.417969 0 8-3.582031 8-8v-96c0-4.417969-3.582031-8-8-8zm-8 96h-80v-80h80zm0 0" fill="#26bfa2"/><path d="m432 160h16v16h-16zm0 0" fill="#26bfa2"/><path d="m384 160h32v16h-32zm0 0" fill="#26bfa2"/><path d="m384 192h64v16h-64zm0 0" fill="#26bfa2"/><path d="m80 320h16v16h-16zm0 0" fill="#26bfa2"/><path d="m32 320h32v16h-32zm0 0" fill="#26bfa2"/><path d="m32 352h64v16h-64zm0 0" fill="#26bfa2"/><path d="m136 408h64v16h-64zm0 0" fill="#26bfa2"/><path d="m136 432h64v16h-64zm0 0" fill="#26bfa2"/><path d="m360 288h-96c-4.417969 0-8 3.582031-8 8v96c0 4.417969 3.582031 8 8 8h96c4.417969 0 8-3.582031 8-8v-96c0-4.417969-3.582031-8-8-8zm-8 96h-80v-80h80zm0 0" fill="#26bfa2"/><path d="m384 320h16v16h-16zm0 0" fill="#26bfa2"/><path d="m416 320h32v16h-32zm0 0" fill="#26bfa2"/><path d="m384 352h64v16h-64zm0 0" fill="#26bfa2"/><path d="m280 408h64v16h-64zm0 0" fill="#26bfa2"/><path d="m280 432h64v16h-64zm0 0" fill="#26bfa2"/></svg>
